<?xml version="1.0" encoding="utf-8"?>
<!-- Generator: Adobe Illustrator 27.5.0, SVG Export Plug-In . SVG Version: 6.00 Build 0)  -->
<svg version="1.1" xmlns="http://www.w3.org/2000/svg" xmlns:xlink="http://www.w3.org/1999/xlink" x="0px" y="0px"
	 viewBox="0 0 500 500" style="enable-background:new 0 0 500 500;" xml:space="preserve">

<g id="OBJECTS">
	<g>
		<ellipse style="fill:#D69B78;" cx="241" cy="416.935" rx="187" ry="42.633"/>
		<g>
			<g>
				<path style="fill:#FFE2C0;" d="M121.896,256.402c-2.406,0.048-4.813,0.096-7.219,0.143c0,0-5.256-7.774-5.791-8.069
					c-11.873,0.019-23.744,1.219-35.165,3.151c0.254-1.974,0.484-3.967,0.317-5.95c-0.167-1.983-0.759-3.977-1.997-5.535
					c-1.238-1.558-3.184-2.623-5.17-2.498c-1.986,0.125-3.898,1.601-4.236,3.563c0.814-0.141,1.646,0.304,2.163,0.948
					c0.517,0.644,0.771,1.458,0.952,2.264c0.877,3.898,0.276,8.11-1.658,11.606l39.981-4.847c0,0,3.297,6.505,3.118,6.73
					c4.598,2.627,10,3.822,15.277,3.38C122.263,259.754,122.272,258.192,121.896,256.402z"/>
				<path style="fill:#82010E;" d="M129.793,255.633c0.307-3.132,0.427-6.283,0.357-9.429c-0.021-0.951-0.104-2.005-0.796-2.658
					c-0.832-0.786-2.153-0.637-3.329-0.49c0.115-1.417-0.099-2.943-1.014-4.03c-0.916-1.088-2.677-1.529-3.804-0.663
					c-1.215,0.935-1.165,2.763-0.881,4.27c0.282,1.499,0.723,3.056,1.815,4.12s3.019,1.405,4.123,0.352
					c-0.161,3.038-0.12,6.087,0.121,9.12C127.139,255.925,128.012,255.938,129.793,255.633z"/>
				<path style="fill:#82010E;" d="M138.54,265.934c-0.99-5.379-1.295-10.884-0.907-16.34c-2.906-0.925-6.428-1.737-8.722,0.272
					c-2.037,1.784-2.033,4.898-1.868,7.6c0.168,2.756,0.707,6.063,3.255,7.127C132.892,265.676,136.239,263.712,138.54,265.934z"/>
				<path style="fill:#82010E;" d="M358.581,250.493c1.197,0.442,2.556-0.433,3.103-1.585c0.547-1.152,0.494-2.487,0.43-3.761
					c-0.083-1.645-0.166-3.29-0.249-4.934c-0.032-0.633-0.061-1.285,0.151-1.882c0.212-0.597,0.729-1.132,1.362-1.165
					c0.829-0.044,1.451,0.73,1.853,1.456c1.692,3.053,2.172,6.756,1.313,10.139c-0.325,1.282-0.855,2.548-1.774,3.5
					c-0.919,0.952-2.278,1.545-3.579,1.305C359.891,253.325,358.763,252.116,358.581,250.493z"/>
				<path style="fill:#82010E;" d="M360.39,265.39c0.479-5.494,0.957-11.048,0.15-16.503c-0.301-2.03-0.844-4.154-2.321-5.579
					c-1.477-1.425-4.147-1.773-5.497-0.227c-0.958,1.097-0.967,2.705-0.925,4.161c0.182,6.32,0.363,12.639,0.545,18.959
					C355.307,266.938,358.521,266.633,360.39,265.39z"/>
				<path style="fill:#FFE2C0;" d="M119.124,272.34c1.028-4.274,0.09-9.224-3.204-12.135c-3.294-2.911-9.067-2.929-11.744,0.558
					c-1.947,2.536-1.898,6.024-1.762,9.218c0.201,4.708,0.402,9.417,0.602,14.125c0.092,2.147,0.231,4.435,1.505,6.164
					c1.817,2.466,5.576,2.933,8.304,1.542c2.728-1.391,4.478-4.242,5.25-7.206C118.847,281.644,117.673,278.372,119.124,272.34z"/>
				<path style="fill:#FFE2C0;" d="M370.366,262.584c1.955-0.817,3.964-1.646,6.081-1.725c2.118-0.079,4.402,0.752,5.476,2.579
					c0.786,1.337,0.818,2.97,0.828,4.52c0.02,3.095,0.04,6.19,0.06,9.285c0.014,2.165,0.009,4.417-0.934,6.365
					c-0.944,1.948-3.128,3.478-5.224,2.936c-2.286-0.591-3.362-3.169-3.97-5.451C371.146,275.316,370.476,269.308,370.366,262.584z"
					/>
				<path style="fill:#FFFFFF;" d="M138.017,106.478c71.286-8.807,139.546-8.741,212.239-5.614l2.468,166.122l-215,8.077
					L138.017,106.478z"/>
				<path style="fill:#82010E;" d="M168.275,272.986h33.946c0,0,0.154-7.603-0.021-7.728c-10.078,1.427-20.1,3.249-30.035,5.46
					C170.419,271.106,168.535,271.594,168.275,272.986z"/>
				<path style="fill:#82010E;" d="M290.014,266.854c-0.626,2.003-0.62,4.198,0.017,6.198c11.299,0.534,22.614,0.744,33.925,0.63
					C313.054,270.27,301.755,268.128,290.014,266.854z"/>
				<path style="fill:#BD1F00;" d="M126.62,250.093c-0.097,1.539-0.193,3.077-0.29,4.616c2.043,0.058,4.086,0.116,6.129,0.174
					l-0.369,18.908c0,0-12.812,1.111-12.66,1.043c-0.38-5.753-0.091-11.55,0.86-17.236c0.293-1.752,0.67-3.546,1.67-5.015
					C122.96,251.113,124.73,250.037,126.62,250.093z"/>
				<path style="fill:#BD1F00;" d="M130.297,264.102c24.033,0.399,48.066,0.798,72.098,1.198l-32.928,6.932l-38.647,1.56
					L130.297,264.102z"/>
				<path style="fill:#BD1F00;" d="M366.043,251.732c0.097,1.538,0.193,3.077,0.29,4.616c-2.043,0.058-4.086,0.116-6.129,0.174
					l0.369,18.908c0,0,12.812,1.111,12.66,1.043c0.38-5.753,0.091-11.55-0.86-17.236c-0.293-1.752-0.67-3.546-1.67-5.015
					C369.703,252.753,367.933,251.676,366.043,251.732z"/>
				<path style="fill:#BD1F00;" d="M362.366,265.741c-24.033,0.399-48.065,0.798-72.098,1.198l32.928,6.932l38.647,1.56
					L362.366,265.741z"/>
			</g>
			<path style="fill:#DF2600;" d="M384.074,279.585c2.512,27.025,5.045,54.175,11.636,80.505
				c3.098,12.375,7.086,24.537,9.512,37.061c2.427,12.524,3.249,25.609-0.122,38.731c-12.599,4.043-26.057,4.278-39.288,4.478
				c-83.314,1.255-166.628,2.51-249.942,3.766c-3.878,0.058-7.873,0.096-11.478-1.335c-6.318-2.509-10.209-9.179-11.288-15.891
				c-1.079-6.712,0.176-13.555,0.667-21.73c5.038-36.713,10.075-73.426,15.113-110.139c1.041-7.584,2.371-15.765,9.706-23.876
				c80.429-0.808,160.857-1.616,241.286-2.424c4.549-0.046,9.179-0.08,13.536,1.227C377.77,271.265,383.532,273.749,384.074,279.585
				z"/>
			<path style="fill:none;stroke:#B01D00;stroke-miterlimit:10;" d="M134.309,264.965c-1.306,1.539-2.711,2.994-4.202,4.355
				c-3.891,3.549-6.148,8.543-6.24,13.809l-1.168,66.874"/>
			<g>
				<path style="fill:#5E020B;" d="M375.563,351.705c4.124,10.888,8.661,26.776,12.785,37.664c1.264,3.339,2.544,6.985,1.495,10.398
					c-2.101,6.839-11.278,6.719-18.393,7.467c-6.516,0.685-249.927,3.06-254.08,1.939c-3.609-0.974-7.045-3.413-8.186-6.973
					c-0.941-2.935-0.217-6.114,0.511-9.109c3.637-14.962,7.274-29.925,10.911-44.888L375.563,351.705z"/>
				<g>
					<rect x="155.808" y="337.081" style="fill:#5E020B;" width="2.479" height="13.621"/>
					<rect x="175.976" y="338.088" style="fill:#5E020B;" width="2.479" height="13.621"/>
					<rect x="196.145" y="338.088" style="fill:#5E020B;" width="2.479" height="13.621"/>
					<rect x="216.645" y="338.088" style="fill:#5E020B;" width="2.479" height="13.621"/>
					<rect x="236.669" y="338.088" style="fill:#5E020B;" width="2.479" height="13.621"/>
					<rect x="257.147" y="338.088" style="fill:#5E020B;" width="2.479" height="13.621"/>
					<rect x="277.563" y="338.088" style="fill:#5E020B;" width="2.479" height="13.621"/>
					<rect x="297.935" y="338.088" style="fill:#5E020B;" width="2.479" height="13.621"/>
					<rect x="317.808" y="338.088" style="fill:#5E020B;" width="2.479" height="13.621"/>
					<rect x="336.726" y="338.088" style="fill:#5E020B;" width="2.479" height="13.621"/>
					<path style="fill:none;stroke:#5E020B;stroke-width:2;stroke-miterlimit:10;" d="M360.822,338.041
						c-1.286,0.846-0.928,2.922,0.121,4.049c1.049,1.126,2.549,1.74,3.642,2.824c1.397,1.385,1.99,3.423,2.017,5.39
						c0.027,1.968-0.454,3.903-0.932,5.812"/>
					<path style="fill:none;stroke:#5E020B;stroke-width:2;stroke-miterlimit:10;" d="M133.715,335.862
						c-1.286,0.846-0.928,2.922,0.121,4.049c1.049,1.126,2.549,1.74,3.642,2.824c1.397,1.385,1.99,3.423,2.017,5.39
						c0.027,1.968-0.454,3.903-0.932,5.811"/>
				</g>
				<g>
					<path style="fill:#FFE2C0;" d="M360.857,378.335c-0.988-1.924-3.094-1.82-5.216-2.237c-2.122-0.417-4.311-0.197-6.462,0.025
						c-1.481,0.153-3.119,0.385-4.069,1.532c-1.184,1.428-0.743,3.547-0.239,5.332c0.461,1.634,1.057,3.442,2.56,4.233
						c0.791,0.416,1.715,0.475,2.607,0.526c1.76,0.1,3.52,0.2,5.279,0.3c1.14,0.065,2.354,0.113,3.345-0.454
						c1.228-0.703,1.794-2.174,2.028-3.57C360.924,382.625,362.327,381.195,360.857,378.335z"/>
					<path style="fill:#FFE2C0;" d="M385.988,378.335c-1.296-1.924-4.055-1.82-6.837-2.237c-2.782-0.417-5.652-0.197-8.472,0.025
						c-1.941,0.153-4.089,0.385-5.334,1.532c-1.552,1.428-0.974,3.547-0.314,5.332c0.604,1.634,1.386,3.442,3.356,4.233
						c1.037,0.416,2.248,0.475,3.418,0.526c2.307,0.1,4.614,0.2,6.921,0.3c1.495,0.065,3.086,0.113,4.386-0.454
						c1.61-0.703,2.352-2.174,2.658-3.57C386.076,382.625,387.915,381.195,385.988,378.335z"/>
					<path style="fill:#FFE2C0;" d="M330.134,393.909c-5.866-2.382-31.557-0.979-50.895-1.662
						c-19.339-0.683-39.291-0.323-58.896,0.04c-13.496,0.25-29.765,0.843-38.622,1.007c-7.489,0.139-4.909,11.983-5.337,17.226
						c-0.169,2.071,151.939-0.218,153.75-0.306C333.922,410.03,331.796,394.584,330.134,393.909z"/>
					<path style="fill:#FFE2C0;" d="M340.135,378.835c-0.988-1.924-3.094-1.82-5.215-2.237c-2.122-0.417-4.311-0.197-6.462,0.025
						c-1.481,0.153-3.119,0.385-4.069,1.532c-1.184,1.428-0.743,3.547-0.239,5.332c0.461,1.634,1.057,3.442,2.56,4.233
						c0.791,0.416,1.715,0.475,2.607,0.526c1.76,0.1,3.52,0.2,5.279,0.3c1.14,0.065,2.354,0.113,3.346-0.454
						c1.229-0.703,1.794-2.174,2.028-3.57C340.203,383.125,341.605,381.695,340.135,378.835z"/>
					<path style="fill:#FFE2C0;" d="M318.385,378.835c-0.988-1.924-3.094-1.82-5.215-2.237c-2.122-0.417-4.311-0.197-6.462,0.025
						c-1.481,0.153-3.119,0.385-4.069,1.532c-1.184,1.428-0.743,3.547-0.239,5.332c0.461,1.634,1.057,3.442,2.56,4.233
						c0.791,0.416,1.715,0.475,2.607,0.526c1.76,0.1,3.52,0.2,5.279,0.3c1.14,0.065,2.354,0.113,3.346-0.454
						c1.229-0.703,1.794-2.174,2.028-3.57C318.453,383.125,319.855,381.695,318.385,378.835z"/>
					<path style="fill:#FFE2C0;" d="M345.885,361.585c-0.988-1.924-3.094-1.82-5.215-2.237c-2.122-0.417-4.311-0.197-6.462,0.025
						c-1.481,0.153-3.119,0.385-4.069,1.532c-1.184,1.428-0.743,3.547-0.239,5.332c0.461,1.634,1.057,3.442,2.56,4.233
						c0.791,0.416,1.715,0.475,2.607,0.526c1.76,0.1,3.52,0.2,5.279,0.3c1.14,0.065,2.354,0.113,3.346-0.454
						c1.229-0.703,1.794-2.174,2.028-3.57C345.953,365.875,347.355,364.445,345.885,361.585z"/>
					<path style="fill:#FFE2C0;" d="M366.635,361.585c-0.988-1.924-3.094-1.82-5.215-2.237c-2.122-0.417-4.311-0.197-6.462,0.025
						c-1.481,0.153-3.119,0.385-4.069,1.532c-1.184,1.428-0.743,3.547-0.239,5.332c0.461,1.634,1.057,3.442,2.56,4.233
						c0.791,0.416,1.715,0.475,2.607,0.526c1.76,0.1,3.52,0.2,5.279,0.3c1.14,0.065,2.354,0.113,3.345-0.454
						c1.229-0.703,1.794-2.174,2.028-3.57C366.703,365.875,368.105,364.445,366.635,361.585z"/>
					<path style="fill:#FFE2C0;" d="M382.135,350.622c-0.988-1.924-3.094-1.82-5.215-2.237c-2.122-0.417-4.311-0.197-6.462,0.025
						c-1.481,0.153-3.119,0.385-4.069,1.532c-1.184,1.428-0.743,3.547-0.239,5.332c0.461,1.634,1.057,3.442,2.56,4.233
						c0.791,0.416,1.715,0.475,2.607,0.526c1.76,0.1,3.52,0.2,5.279,0.3c1.14,0.065,2.354,0.113,3.345-0.454
						c1.229-0.703,1.794-2.174,2.028-3.57C382.203,354.912,383.605,353.482,382.135,350.622z"/>
					<path style="fill:#FFE2C0;" d="M358.054,347.372c-0.988-1.924-3.093-1.82-5.215-2.237c-2.122-0.417-4.311-0.197-6.462,0.025
						c-1.481,0.153-3.119,0.385-4.069,1.532c-1.184,1.428-0.743,3.547-0.239,5.332c0.461,1.634,1.057,3.442,2.56,4.233
						c0.791,0.416,1.715,0.475,2.607,0.526c1.76,0.1,3.52,0.2,5.279,0.3c1.14,0.065,2.354,0.113,3.345-0.454
						c1.228-0.703,1.794-2.174,2.028-3.57C358.121,351.662,359.523,350.232,358.054,347.372z"/>
					<path style="fill:#FFE2C0;" d="M338.054,346.622c-0.988-1.924-3.093-1.82-5.215-2.237c-2.122-0.417-4.311-0.197-6.462,0.025
						c-1.481,0.153-3.119,0.385-4.069,1.532c-1.184,1.428-0.743,3.547-0.239,5.332c0.461,1.634,1.057,3.442,2.56,4.233
						c0.791,0.416,1.715,0.475,2.607,0.526c1.76,0.1,3.52,0.2,5.279,0.3c1.14,0.065,2.354,0.113,3.345-0.454
						c1.228-0.703,1.794-2.174,2.028-3.57C338.121,350.912,339.523,349.482,338.054,346.622z"/>
					<path style="fill:#FFE2C0;" d="M325.304,361.585c-0.988-1.924-3.093-1.82-5.215-2.237c-2.122-0.417-4.311-0.197-6.462,0.025
						c-1.481,0.153-3.119,0.385-4.069,1.532c-1.184,1.428-0.743,3.547-0.239,5.332c0.461,1.634,1.057,3.442,2.56,4.233
						c0.791,0.416,1.715,0.475,2.607,0.526c1.76,0.1,3.52,0.2,5.279,0.3c1.14,0.065,2.354,0.113,3.345-0.454
						c1.228-0.703,1.794-2.174,2.028-3.57C325.371,365.875,326.773,364.445,325.304,361.585z"/>
					<path style="fill:#FFE2C0;" d="M295.804,378.835c-0.988-1.924-3.093-1.82-5.215-2.237c-2.122-0.417-4.311-0.197-6.462,0.025
						c-1.481,0.153-3.119,0.385-4.069,1.532c-1.184,1.428-0.743,3.547-0.239,5.332c0.461,1.634,1.057,3.442,2.56,4.233
						c0.791,0.416,1.715,0.475,2.607,0.526c1.76,0.1,3.519,0.2,5.279,0.3c1.14,0.065,2.354,0.113,3.345-0.454
						c1.228-0.703,1.794-2.174,2.028-3.57C295.871,383.125,297.273,381.695,295.804,378.835z"/>
					<path style="fill:#FFE2C0;" d="M273.054,378.835c-0.988-1.924-3.093-1.82-5.215-2.237c-2.122-0.417-4.311-0.197-6.462,0.025
						c-1.481,0.153-3.119,0.385-4.069,1.532c-1.184,1.428-0.743,3.547-0.239,5.332c0.461,1.634,1.057,3.442,2.56,4.233
						c0.791,0.416,1.715,0.475,2.607,0.526c1.76,0.1,3.52,0.2,5.279,0.3c1.14,0.065,2.354,0.113,3.345-0.454
						c1.228-0.703,1.794-2.174,2.028-3.57C273.121,383.125,274.523,381.695,273.054,378.835z"/>
					<path style="fill:#FFE2C0;" d="M251.304,378.835c-0.988-1.924-3.093-1.82-5.215-2.237c-2.122-0.417-4.311-0.197-6.462,0.025
						c-1.481,0.153-3.119,0.385-4.069,1.532c-1.184,1.428-0.743,3.547-0.239,5.332c0.461,1.634,1.057,3.442,2.56,4.233
						c0.791,0.416,1.715,0.475,2.607,0.526c1.76,0.1,3.52,0.2,5.279,0.3c1.14,0.065,2.354,0.113,3.346-0.454
						c1.229-0.703,1.794-2.174,2.028-3.57C251.371,383.125,252.773,381.695,251.304,378.835z"/>
					<path style="fill:#FFE2C0;" d="M229.804,378.835c-0.988-1.924-3.093-1.82-5.215-2.237c-2.122-0.417-4.311-0.197-6.462,0.025
						c-1.481,0.153-3.119,0.385-4.069,1.532c-1.184,1.428-0.743,3.547-0.239,5.332c0.461,1.634,1.057,3.442,2.56,4.233
						c0.791,0.416,1.715,0.475,2.607,0.526c1.76,0.1,3.52,0.2,5.279,0.3c1.14,0.065,2.354,0.113,3.346-0.454
						c1.229-0.703,1.794-2.174,2.028-3.57C229.871,383.125,231.273,381.695,229.804,378.835z"/>
					<path style="fill:#FFE2C0;" d="M206.804,378.835c-0.988-1.924-3.093-1.82-5.215-2.237c-2.122-0.417-4.311-0.197-6.462,0.025
						c-1.481,0.153-3.119,0.385-4.069,1.532c-1.184,1.428-0.743,3.547-0.239,5.332c0.461,1.634,1.057,3.442,2.56,4.233
						c0.791,0.416,1.715,0.475,2.607,0.526c1.76,0.1,3.52,0.2,5.279,0.3c1.14,0.065,2.354,0.113,3.346-0.454
						c1.229-0.703,1.794-2.174,2.028-3.57C206.871,383.125,208.273,381.695,206.804,378.835z"/>
					<path style="fill:#FFE2C0;" d="M184.304,378.835c-0.988-1.924-3.093-1.82-5.215-2.237c-2.122-0.417-4.311-0.197-6.462,0.025
						c-1.481,0.153-3.119,0.385-4.069,1.532c-1.184,1.428-0.743,3.547-0.239,5.332c0.461,1.634,1.057,3.442,2.56,4.233
						c0.791,0.416,1.715,0.475,2.607,0.526c1.76,0.1,3.52,0.2,5.279,0.3c1.14,0.065,2.354,0.113,3.346-0.454
						c1.229-0.703,1.794-2.174,2.028-3.57C184.371,383.125,185.773,381.695,184.304,378.835z"/>
					<path style="fill:#FFE2C0;" d="M162.804,378.835c-0.988-1.924-3.093-1.82-5.215-2.237c-2.122-0.417-4.311-0.197-6.462,0.025
						c-1.481,0.153-3.119,0.385-4.069,1.532c-1.184,1.428-0.743,3.547-0.239,5.332c0.461,1.634,1.057,3.442,2.56,4.233
						c0.791,0.416,1.715,0.475,2.607,0.526c1.76,0.1,3.52,0.2,5.279,0.3c1.14,0.065,2.354,0.113,3.346-0.454
						c1.229-0.703,1.794-2.174,2.028-3.57C162.871,383.125,164.273,381.695,162.804,378.835z"/>
					<path style="fill:#FFE2C0;" d="M154.222,362.842c-0.988-1.923-3.094-1.82-5.215-2.237c-2.122-0.417-4.311-0.197-6.462,0.025
						c-1.481,0.153-3.119,0.386-4.069,1.532c-1.184,1.428-0.743,3.547-0.239,5.332c0.461,1.634,1.057,3.442,2.56,4.233
						c0.791,0.416,1.715,0.475,2.607,0.526c1.76,0.1,3.52,0.2,5.279,0.3c1.14,0.065,2.354,0.113,3.345-0.454
						c1.229-0.703,1.794-2.174,2.028-3.57C154.289,367.132,155.692,365.703,154.222,362.842z"/>
					<path style="fill:#FFE2C0;" d="M176.722,362.842c-0.988-1.923-3.094-1.82-5.215-2.237c-2.122-0.417-4.311-0.197-6.462,0.025
						c-1.481,0.153-3.119,0.386-4.069,1.532c-1.184,1.428-0.743,3.547-0.239,5.332c0.461,1.634,1.057,3.442,2.56,4.233
						c0.791,0.416,1.715,0.475,2.607,0.526c1.76,0.1,3.52,0.2,5.279,0.3c1.14,0.065,2.354,0.113,3.345-0.454
						c1.229-0.703,1.794-2.174,2.028-3.57C176.789,367.132,178.192,365.703,176.722,362.842z"/>
					<path style="fill:#FFE2C0;" d="M198.222,362.842c-0.988-1.923-3.094-1.82-5.215-2.237c-2.122-0.417-4.311-0.197-6.462,0.025
						c-1.481,0.153-3.119,0.386-4.069,1.532c-1.184,1.428-0.743,3.547-0.239,5.332c0.461,1.634,1.057,3.442,2.56,4.233
						c0.791,0.416,1.715,0.475,2.607,0.526c1.76,0.1,3.52,0.2,5.279,0.3c1.14,0.065,2.354,0.113,3.345-0.454
						c1.229-0.703,1.794-2.174,2.028-3.57C198.289,367.132,199.692,365.703,198.222,362.842z"/>
					<path style="fill:#FFE2C0;" d="M219.222,362.842c-0.988-1.923-3.094-1.82-5.215-2.237c-2.122-0.417-4.311-0.197-6.462,0.025
						c-1.481,0.153-3.119,0.386-4.069,1.532c-1.184,1.428-0.743,3.547-0.239,5.332c0.461,1.634,1.057,3.442,2.56,4.233
						c0.791,0.416,1.715,0.475,2.607,0.526c1.76,0.1,3.52,0.2,5.279,0.3c1.14,0.065,2.354,0.113,3.345-0.454
						c1.229-0.703,1.794-2.174,2.028-3.57C219.289,367.132,220.692,365.703,219.222,362.842z"/>
					<path style="fill:#FFE2C0;" d="M241.492,362.842c-0.988-1.923-3.093-1.82-5.215-2.237c-2.122-0.417-4.311-0.197-6.462,0.025
						c-1.481,0.153-3.119,0.386-4.069,1.532c-1.184,1.428-0.743,3.547-0.239,5.332c0.461,1.634,1.057,3.442,2.56,4.233
						c0.791,0.416,1.715,0.475,2.607,0.526c1.76,0.1,3.519,0.2,5.279,0.3c1.14,0.065,2.354,0.113,3.345-0.454
						c1.229-0.703,1.794-2.174,2.028-3.57C241.559,367.132,242.961,365.703,241.492,362.842z"/>
					<path style="fill:#FFE2C0;" d="M262.992,362.842c-0.988-1.923-3.093-1.82-5.215-2.237c-2.122-0.417-4.311-0.197-6.462,0.025
						c-1.481,0.153-3.119,0.386-4.069,1.532c-1.184,1.428-0.743,3.547-0.239,5.332c0.461,1.634,1.057,3.442,2.56,4.233
						c0.791,0.416,1.715,0.475,2.607,0.526c1.76,0.1,3.519,0.2,5.279,0.3c1.14,0.065,2.354,0.113,3.345-0.454
						c1.229-0.703,1.794-2.174,2.028-3.57C263.059,367.132,264.461,365.703,262.992,362.842z"/>
					<path style="fill:#FFE2C0;" d="M283.398,362.842c-0.988-1.923-3.094-1.82-5.215-2.237c-2.122-0.417-4.311-0.197-6.462,0.025
						c-1.481,0.153-3.119,0.386-4.069,1.532c-1.184,1.428-0.743,3.547-0.239,5.332c0.461,1.634,1.057,3.442,2.56,4.233
						c0.791,0.416,1.715,0.475,2.607,0.526c1.76,0.1,3.52,0.2,5.279,0.3c1.14,0.065,2.354,0.113,3.345-0.454
						c1.229-0.703,1.794-2.174,2.028-3.57C283.465,367.132,284.867,365.703,283.398,362.842z"/>
					<path style="fill:#FFE2C0;" d="M304.385,362.842c-0.988-1.923-3.094-1.82-5.215-2.237c-2.122-0.417-4.311-0.197-6.462,0.025
						c-1.481,0.153-3.119,0.386-4.069,1.532c-1.184,1.428-0.743,3.547-0.239,5.332c0.461,1.634,1.057,3.442,2.56,4.233
						c0.791,0.416,1.715,0.475,2.607,0.526c1.76,0.1,3.52,0.2,5.279,0.3c1.14,0.065,2.354,0.113,3.346-0.454
						c1.229-0.703,1.794-2.174,2.028-3.57C304.453,367.132,305.855,365.703,304.385,362.842z"/>
					<path style="fill:#FFE2C0;" d="M316.722,346.365c-0.988-1.924-3.094-1.82-5.216-2.237c-2.122-0.417-4.311-0.197-6.462,0.025
						c-1.481,0.153-3.119,0.386-4.069,1.532c-1.184,1.428-0.743,3.547-0.239,5.332c0.461,1.634,1.057,3.442,2.56,4.233
						c0.791,0.416,1.715,0.475,2.607,0.526c1.76,0.1,3.52,0.2,5.279,0.3c1.14,0.065,2.354,0.113,3.345-0.454
						c1.229-0.703,1.794-2.174,2.028-3.57C316.789,350.654,318.192,349.225,316.722,346.365z"/>
					<path style="fill:#FFE2C0;" d="M296.722,346.365c-0.988-1.924-3.094-1.82-5.216-2.237c-2.122-0.417-4.311-0.197-6.462,0.025
						c-1.481,0.153-3.119,0.386-4.069,1.532c-1.184,1.428-0.743,3.547-0.239,5.332c0.461,1.634,1.057,3.442,2.56,4.233
						c0.791,0.416,1.715,0.475,2.607,0.526c1.76,0.1,3.52,0.2,5.279,0.3c1.14,0.065,2.354,0.113,3.345-0.454
						c1.229-0.703,1.794-2.174,2.028-3.57C296.789,350.654,298.192,349.225,296.722,346.365z"/>
					<path style="fill:#FFE2C0;" d="M276.722,346.365c-0.988-1.924-3.094-1.82-5.216-2.237c-2.122-0.417-4.311-0.197-6.462,0.025
						c-1.481,0.153-3.119,0.386-4.069,1.532c-1.184,1.428-0.743,3.547-0.239,5.332c0.461,1.634,1.057,3.442,2.56,4.233
						c0.791,0.416,1.715,0.475,2.607,0.526c1.76,0.1,3.52,0.2,5.279,0.3c1.14,0.065,2.354,0.113,3.345-0.454
						c1.229-0.703,1.794-2.174,2.028-3.57C276.789,350.654,278.192,349.225,276.722,346.365z"/>
					<path style="fill:#FFE2C0;" d="M255.891,346.622c-0.988-1.924-3.094-1.82-5.215-2.237c-2.122-0.417-4.311-0.197-6.462,0.025
						c-1.481,0.153-3.119,0.385-4.069,1.532c-1.184,1.428-0.743,3.547-0.239,5.332c0.461,1.634,1.057,3.442,2.56,4.233
						c0.791,0.416,1.715,0.475,2.607,0.526c1.76,0.1,3.519,0.2,5.279,0.3c1.14,0.065,2.354,0.113,3.346-0.454
						c1.229-0.703,1.794-2.174,2.028-3.57C255.958,350.912,257.36,349.482,255.891,346.622z"/>
					<path style="fill:#FFE2C0;" d="M235.851,346.622c-0.988-1.924-3.094-1.82-5.215-2.237c-2.122-0.417-4.311-0.197-6.462,0.025
						c-1.481,0.153-3.119,0.385-4.069,1.532c-1.184,1.428-0.743,3.547-0.239,5.332c0.461,1.634,1.057,3.442,2.56,4.233
						c0.791,0.416,1.715,0.475,2.607,0.526c1.76,0.1,3.52,0.2,5.279,0.3c1.14,0.065,2.354,0.113,3.346-0.454
						c1.229-0.703,1.794-2.174,2.028-3.57C235.918,350.912,237.32,349.482,235.851,346.622z"/>
					<path style="fill:#FFE2C0;" d="M215.385,346.365c-0.988-1.924-3.094-1.82-5.215-2.237c-2.122-0.417-4.311-0.197-6.462,0.025
						c-1.481,0.153-3.119,0.386-4.069,1.532c-1.184,1.428-0.743,3.547-0.239,5.332c0.461,1.634,1.057,3.442,2.56,4.233
						c0.791,0.416,1.715,0.475,2.607,0.526c1.76,0.1,3.52,0.2,5.279,0.3c1.14,0.065,2.354,0.113,3.345-0.454
						c1.229-0.703,1.794-2.174,2.028-3.57C215.453,350.654,216.855,349.225,215.385,346.365z"/>
					<path style="fill:#FFE2C0;" d="M194.769,346.365c-0.988-1.924-3.093-1.82-5.215-2.237c-2.122-0.417-4.311-0.197-6.462,0.025
						c-1.481,0.153-3.119,0.386-4.069,1.532c-1.184,1.428-0.743,3.547-0.239,5.332c0.461,1.634,1.057,3.442,2.56,4.233
						c0.791,0.416,1.715,0.475,2.607,0.526c1.76,0.1,3.52,0.2,5.279,0.3c1.14,0.065,2.354,0.113,3.346-0.454
						c1.229-0.703,1.794-2.174,2.028-3.57C194.836,350.654,196.239,349.225,194.769,346.365z"/>
					<path style="fill:#FFE2C0;" d="M173.548,346.365c-0.988-1.924-3.094-1.82-5.215-2.237c-2.122-0.417-4.311-0.197-6.462,0.025
						c-1.481,0.153-3.119,0.386-4.069,1.532c-1.184,1.428-0.743,3.547-0.239,5.332c0.461,1.634,1.057,3.442,2.56,4.233
						c0.791,0.416,1.715,0.475,2.607,0.526c1.76,0.1,3.52,0.2,5.279,0.3c1.14,0.065,2.354,0.113,3.346-0.454
						c1.229-0.703,1.794-2.174,2.028-3.57C173.616,350.654,175.018,349.225,173.548,346.365z"/>
					<path style="fill:#FFE2C0;" d="M150.811,346.365c-0.988-1.924-3.093-1.82-5.215-2.237c-2.122-0.417-4.311-0.197-6.462,0.025
						c-1.481,0.153-3.119,0.386-4.069,1.532c-1.184,1.428-0.743,3.547-0.239,5.332c0.461,1.634,1.057,3.442,2.56,4.233
						c0.791,0.416,1.715,0.475,2.607,0.526c1.76,0.1,3.52,0.2,5.279,0.3c1.14,0.065,2.354,0.113,3.346-0.454
						c1.229-0.703,1.794-2.174,2.028-3.57C150.878,350.654,152.28,349.225,150.811,346.365z"/>
					<path style="fill:#FFE2C0;" d="M140.811,329.887c-0.988-1.924-3.093-1.82-5.215-2.237c-2.122-0.417-4.311-0.197-6.462,0.025
						c-1.481,0.153-3.119,0.385-4.069,1.532c-1.184,1.428-0.743,3.547-0.239,5.332c0.461,1.634,1.057,3.442,2.56,4.233
						c0.791,0.416,1.715,0.475,2.607,0.526c1.76,0.1,3.52,0.2,5.279,0.3c1.14,0.065,2.354,0.113,3.346-0.454
						c1.229-0.703,1.794-2.174,2.028-3.57C140.878,334.177,142.28,332.747,140.811,329.887z"/>
					<path style="fill:#FFE2C0;" d="M164.967,329.887c-0.988-1.924-3.093-1.82-5.215-2.237c-2.122-0.417-4.311-0.197-6.462,0.025
						c-1.481,0.153-3.119,0.385-4.069,1.532c-1.184,1.428-0.743,3.547-0.239,5.332c0.461,1.634,1.057,3.442,2.56,4.233
						c0.791,0.416,1.715,0.475,2.607,0.526c1.76,0.1,3.52,0.2,5.279,0.3c1.14,0.065,2.354,0.113,3.346-0.454
						c1.229-0.703,1.794-2.174,2.028-3.57C165.034,334.177,166.436,332.747,164.967,329.887z"/>
					<path style="fill:#FFE2C0;" d="M184.304,329.887c-0.988-1.924-3.093-1.82-5.215-2.237c-2.122-0.417-4.311-0.197-6.462,0.025
						c-1.481,0.153-3.119,0.385-4.069,1.532c-1.184,1.428-0.743,3.547-0.239,5.332c0.461,1.634,1.057,3.442,2.56,4.233
						c0.791,0.416,1.715,0.475,2.607,0.526c1.76,0.1,3.52,0.2,5.279,0.3c1.14,0.065,2.354,0.113,3.346-0.454
						c1.229-0.703,1.794-2.174,2.028-3.57C184.371,334.177,185.773,332.747,184.304,329.887z"/>
					<path style="fill:#FFE2C0;" d="M205.304,329.887c-0.988-1.924-3.093-1.82-5.215-2.237c-2.122-0.417-4.311-0.197-6.462,0.025
						c-1.481,0.153-3.119,0.385-4.069,1.532c-1.184,1.428-0.743,3.547-0.239,5.332c0.461,1.634,1.057,3.442,2.56,4.233
						c0.791,0.416,1.715,0.475,2.607,0.526c1.76,0.1,3.52,0.2,5.279,0.3c1.14,0.065,2.354,0.113,3.346-0.454
						c1.229-0.703,1.794-2.174,2.028-3.57C205.371,334.177,206.773,332.747,205.304,329.887z"/>
					<path style="fill:#FFE2C0;" d="M225.804,329.887c-0.988-1.924-3.093-1.82-5.215-2.237c-2.122-0.417-4.311-0.197-6.462,0.025
						c-1.481,0.153-3.119,0.385-4.069,1.532c-1.184,1.428-0.743,3.547-0.239,5.332c0.461,1.634,1.057,3.442,2.56,4.233
						c0.791,0.416,1.715,0.475,2.607,0.526c1.76,0.1,3.52,0.2,5.279,0.3c1.14,0.065,2.354,0.113,3.346-0.454
						c1.229-0.703,1.794-2.174,2.028-3.57C225.871,334.177,227.273,332.747,225.804,329.887z"/>
					<path style="fill:#FFE2C0;" d="M245.828,329.887c-0.988-1.924-3.093-1.82-5.215-2.237c-2.122-0.417-4.311-0.197-6.462,0.025
						c-1.481,0.153-3.119,0.385-4.069,1.532c-1.184,1.428-0.743,3.547-0.239,5.332c0.461,1.634,1.057,3.442,2.56,4.233
						c0.791,0.416,1.715,0.475,2.607,0.526c1.76,0.1,3.52,0.2,5.279,0.3c1.14,0.065,2.354,0.113,3.345-0.454
						c1.229-0.703,1.794-2.174,2.028-3.57C245.896,334.177,247.298,332.747,245.828,329.887z"/>
					<path style="fill:#FFE2C0;" d="M266.097,329.887c-0.988-1.924-3.093-1.82-5.215-2.237c-2.122-0.417-4.311-0.197-6.462,0.025
						c-1.481,0.153-3.119,0.385-4.069,1.532c-1.184,1.428-0.743,3.547-0.239,5.332c0.461,1.634,1.057,3.442,2.56,4.233
						c0.791,0.416,1.715,0.475,2.607,0.526c1.76,0.1,3.52,0.2,5.279,0.3c1.14,0.065,2.354,0.113,3.345-0.454
						c1.228-0.703,1.794-2.174,2.028-3.57C266.164,334.177,267.566,332.747,266.097,329.887z"/>
					<path style="fill:#FFE2C0;" d="M287.222,329.887c-0.988-1.924-3.094-1.82-5.216-2.237c-2.122-0.417-4.311-0.197-6.462,0.025
						c-1.481,0.153-3.119,0.385-4.069,1.532c-1.184,1.428-0.743,3.547-0.239,5.332c0.461,1.634,1.057,3.442,2.56,4.233
						c0.791,0.416,1.715,0.475,2.607,0.526c1.76,0.1,3.52,0.2,5.279,0.3c1.14,0.065,2.354,0.113,3.345-0.454
						c1.229-0.703,1.794-2.174,2.028-3.57C287.289,334.177,288.692,332.747,287.222,329.887z"/>
					<path style="fill:#FFE2C0;" d="M306.722,329.887c-0.988-1.924-3.094-1.82-5.216-2.237c-2.122-0.417-4.311-0.197-6.462,0.025
						c-1.481,0.153-3.119,0.385-4.069,1.532c-1.184,1.428-0.743,3.547-0.239,5.332c0.461,1.634,1.057,3.442,2.56,4.233
						c0.791,0.416,1.715,0.475,2.607,0.526c1.76,0.1,3.52,0.2,5.279,0.3c1.14,0.065,2.354,0.113,3.345-0.454
						c1.229-0.703,1.794-2.174,2.028-3.57C306.789,334.177,308.192,332.747,306.722,329.887z"/>
					<path style="fill:#FFE2C0;" d="M326.967,329.887c-0.988-1.924-3.094-1.82-5.215-2.237c-2.122-0.417-4.311-0.197-6.462,0.025
						c-1.481,0.153-3.119,0.385-4.069,1.532c-1.184,1.428-0.743,3.547-0.239,5.332c0.461,1.634,1.057,3.442,2.56,4.233
						c0.791,0.416,1.715,0.475,2.607,0.526c1.76,0.1,3.52,0.2,5.279,0.3c1.14,0.065,2.354,0.113,3.346-0.454
						c1.228-0.703,1.794-2.174,2.028-3.57C327.034,334.177,328.436,332.747,326.967,329.887z"/>
					<path style="fill:#FFE2C0;" d="M346.635,329.887c-0.988-1.924-3.094-1.82-5.215-2.237c-2.122-0.417-4.311-0.197-6.462,0.025
						c-1.481,0.153-3.119,0.385-4.069,1.532c-1.184,1.428-0.743,3.547-0.239,5.332c0.461,1.634,1.057,3.442,2.56,4.233
						c0.791,0.416,1.715,0.475,2.607,0.526c1.76,0.1,3.52,0.2,5.279,0.3c1.14,0.065,2.354,0.113,3.346-0.454
						c1.229-0.703,1.794-2.174,2.028-3.57C346.703,334.177,348.105,332.747,346.635,329.887z"/>
					<path style="fill:#FFE2C0;" d="M371.172,329.887c-0.988-1.924-3.094-1.82-5.216-2.237c-2.122-0.417-4.311-0.197-6.462,0.025
						c-1.481,0.153-3.119,0.385-4.069,1.532c-1.184,1.428-0.743,3.547-0.239,5.332c0.461,1.634,1.057,3.442,2.56,4.233
						c0.791,0.416,1.715,0.475,2.607,0.526c1.76,0.1,3.52,0.2,5.279,0.3c1.14,0.065,2.354,0.113,3.345-0.454
						c1.229-0.703,1.794-2.174,2.028-3.57C371.24,334.177,372.642,332.747,371.172,329.887z"/>
					<path style="fill:#FFE2C0;" d="M139.884,378.335c-1.353-1.924-4.236-1.82-7.141-2.237c-2.905-0.417-5.903-0.197-8.848,0.025
						c-2.028,0.153-4.27,0.385-5.571,1.532c-1.621,1.428-1.017,3.547-0.327,5.332c0.631,1.634,1.447,3.442,3.505,4.233
						c1.083,0.416,2.348,0.475,3.57,0.526c2.41,0.1,4.819,0.2,7.228,0.3c1.561,0.065,3.223,0.113,4.581-0.454
						c1.682-0.703,2.457-2.174,2.776-3.57C139.977,382.625,141.896,381.195,139.884,378.335z"/>
					<path style="fill:#FFE2C0;" d="M133.711,361.585c-0.894-1.924-2.797-1.82-4.716-2.237c-1.919-0.417-3.898-0.197-5.843,0.025
						c-1.339,0.153-2.82,0.385-3.679,1.532c-1.07,1.428-0.672,3.547-0.216,5.332c0.417,1.634,0.956,3.442,2.315,4.233
						c0.715,0.416,1.55,0.475,2.357,0.526c1.591,0.1,3.182,0.2,4.773,0.3c1.031,0.065,2.129,0.113,3.025-0.454
						c1.111-0.703,1.622-2.174,1.833-3.57C133.772,365.875,135.04,364.445,133.711,361.585z"/>
				</g>
			</g>
			<path style="fill:none;stroke:#B01D00;stroke-miterlimit:10;" d="M363.253,266.991c4.935,2.901,8.074,8.213,9.571,13.738
				c1.497,5.525,1.543,11.325,1.58,17.049c0.107,16.79,0.214,33.581,0.322,50.371"/>
			<path style="fill:#F5B793;" d="M217.26,311.468v-5.093c0-1.355,1.098-2.453,2.453-2.453h60.093c1.355,0,2.453,1.098,2.453,2.453
				v5.093c0,1.355-1.098,2.453-2.453,2.453h-60.093C218.359,313.921,217.26,312.823,217.26,311.468z"/>
			<circle style="fill:#B01D00;" cx="153.672" cy="309.437" r="3.375"/>
			<path style="fill:none;stroke:#B01D00;stroke-miterlimit:10;" d="M123.628,300.111c83.979-0.051,167.957-0.102,251.936-0.153"/>
			<path style="fill:#5E020B;" d="M331.781,308.74L331.781,308.74c0-1.105,0.895-2,2-2h19c1.105,0,2,0.895,2,2v0
				c0,1.105-0.895,2-2,2h-19C332.677,310.74,331.781,309.844,331.781,308.74z"/>
			<circle style="fill:#B01D00;" cx="344.172" cy="309.437" r="3.375"/>
		</g>
	</g>
</g>
</svg>
